<?xml version="1.0" encoding="UTF-8" standalone="no"?>
<!DOCTYPE svg PUBLIC "-//W3C//DTD SVG 1.1//EN"
 "http://www.w3.org/Graphics/SVG/1.1/DTD/svg11.dtd">
<!-- Generated by graphviz version 2.40.1 (20161225.0304)
 -->
<!-- Title: finite_state_machine Pages: 1 -->
<svg width="210pt" height="88pt"
 viewBox="0.00 0.00 210.49 88.00" xmlns="http://www.w3.org/2000/svg" xmlns:xlink="http://www.w3.org/1999/xlink">
<g id="graph0" class="graph" transform="scale(1 1) rotate(0) translate(4 83.9965)">
<title>finite_state_machine</title>
<polygon fill="#ffffff" stroke="transparent" points="-4,4 -4,-83.9965 206.4948,-83.9965 206.4948,4 -4,4"/>
<!-- q1 -->
<g id="node1" class="node">
<title>q1</title>
<ellipse fill="none" stroke="#000000" cx="63" cy="-23.4983" rx="19.4968" ry="19.4968"/>
<ellipse fill="none" stroke="#000000" cx="63" cy="-23.4983" rx="23.4965" ry="23.4965"/>
<text text-anchor="middle" x="63" y="-19.7983" font-family="Times,serif" font-size="14.00" fill="#000000">q1</text>
</g>
<!-- q1&#45;&gt;q1 -->
<g id="edge1" class="edge">
<title>q1&#45;&gt;q1</title>
<path fill="none" stroke="#000000" d="M52.8102,-44.85C51.4003,-55.4983 54.7969,-64.9965 63,-64.9965 68.3833,-64.9965 71.6966,-60.906 72.9399,-55.0843"/>
<polygon fill="#000000" stroke="#000000" points="76.4446,-54.9325 73.1898,-44.85 69.4467,-54.7615 76.4446,-54.9325"/>
<text text-anchor="middle" x="63" y="-68.7965" font-family="Times,serif" font-size="14.00" fill="#000000">unchanged &amp;&amp; !called</text>
</g>
<!-- q2 -->
<g id="node2" class="node">
<title>q2</title>
<ellipse fill="none" stroke="#000000" cx="178.9965" cy="-23.4983" rx="19.4968" ry="19.4968"/>
<ellipse fill="none" stroke="#000000" cx="178.9965" cy="-23.4983" rx="23.4965" ry="23.4965"/>
<text text-anchor="middle" x="178.9965" y="-19.7983" font-family="Times,serif" font-size="14.00" fill="#000000">q2</text>
</g>
<!-- q1&#45;&gt;q2 -->
<g id="edge2" class="edge">
<title>q1&#45;&gt;q2</title>
<path fill="none" stroke="#000000" d="M86.7535,-23.4983C103.5648,-23.4983 126.3565,-23.4983 145.078,-23.4983"/>
<polygon fill="#000000" stroke="#000000" points="145.2748,-26.9984 155.2748,-23.4983 145.2747,-19.9984 145.2748,-26.9984"/>
<text text-anchor="middle" x="120.9983" y="-27.2983" font-family="Times,serif" font-size="14.00" fill="#000000">called</text>
</g>
<!-- q2&#45;&gt;q2 -->
<g id="edge3" class="edge">
<title>q2&#45;&gt;q2</title>
<path fill="none" stroke="#000000" d="M168.8067,-44.85C167.3968,-55.4983 170.7934,-64.9965 178.9965,-64.9965 184.3798,-64.9965 187.6931,-60.906 188.9365,-55.0843"/>
<polygon fill="#000000" stroke="#000000" points="192.4411,-54.9325 189.1864,-44.85 185.4432,-54.7615 192.4411,-54.9325"/>
<text text-anchor="middle" x="178.9965" y="-68.7965" font-family="Times,serif" font-size="14.00" fill="#000000">True</text>
</g>
</g>
</svg>
