<?xml version="1.0" encoding="UTF-8" standalone="no"?>
<!DOCTYPE svg PUBLIC "-//W3C//DTD SVG 1.1//EN"
 "http://www.w3.org/Graphics/SVG/1.1/DTD/svg11.dtd">
<!-- Generated by graphviz version 2.40.1 (20161225.0304)
 -->
<!-- Title: Topology Pages: 1 -->
<svg width="406pt" height="188pt"
 viewBox="0.00 0.00 405.78 188.00" xmlns="http://www.w3.org/2000/svg" xmlns:xlink="http://www.w3.org/1999/xlink">
<g id="graph0" class="graph" transform="scale(1 1) rotate(0) translate(4 184)">
<title>Topology</title>
<polygon fill="#ffffff" stroke="transparent" points="-4,4 -4,-184 401.7832,-184 401.7832,4 -4,4"/>
<!-- (Manager; A1, A2, A3) -->
<g id="node1" class="node">
<title>(Manager; A1, A2, A3)</title>
<ellipse fill="none" stroke="#000000" cx="94.8916" cy="-162" rx="94.7833" ry="18"/>
<text text-anchor="middle" x="94.8916" y="-158.3" font-family="Times,serif" font-size="14.00" fill="#000000">(Manager; A1, A2, A3)</text>
</g>
<!-- A1 -->
<g id="node5" class="node">
<title>A1</title>
<polygon fill="none" stroke="#000000" points="117.8916,-108 63.8916,-108 63.8916,-72 117.8916,-72 117.8916,-108"/>
<text text-anchor="middle" x="90.8916" y="-86.3" font-family="Times,serif" font-size="14.00" fill="#000000">A1</text>
</g>
<!-- (Manager; A1, A2, A3)&#45;&gt;A1 -->
<g id="edge1" class="edge">
<title>(Manager; A1, A2, A3)&#45;&gt;A1</title>
<path fill="none" stroke="#000000" d="M93.8822,-143.8314C93.2805,-133 92.5187,-119.2876 91.9145,-108.4133"/>
</g>
<!-- A2 -->
<g id="node6" class="node">
<title>A2</title>
<polygon fill="none" stroke="#000000" points="189.8916,-108 135.8916,-108 135.8916,-72 189.8916,-72 189.8916,-108"/>
<text text-anchor="middle" x="162.8916" y="-86.3" font-family="Times,serif" font-size="14.00" fill="#000000">A2</text>
</g>
<!-- (Manager; A1, A2, A3)&#45;&gt;A2 -->
<g id="edge2" class="edge">
<title>(Manager; A1, A2, A3)&#45;&gt;A2</title>
<path fill="none" stroke="#000000" d="M111.7006,-144.2022C122.0836,-133.2085 135.3692,-119.1413 145.8036,-108.0931"/>
</g>
<!-- A3 -->
<g id="node7" class="node">
<title>A3</title>
<polygon fill="none" stroke="#000000" points="261.8916,-108 207.8916,-108 207.8916,-72 261.8916,-72 261.8916,-108"/>
<text text-anchor="middle" x="234.8916" y="-86.3" font-family="Times,serif" font-size="14.00" fill="#000000">A3</text>
</g>
<!-- (Manager; A1, A2, A3)&#45;&gt;A3 -->
<g id="edge3" class="edge">
<title>(Manager; A1, A2, A3)&#45;&gt;A3</title>
<path fill="none" stroke="#000000" d="M128.0696,-144.937C152.3274,-132.4616 184.8325,-115.7447 207.5918,-104.0399"/>
</g>
<!-- (Manager; A1, A2, A4) -->
<g id="node2" class="node">
<title>(Manager; A1, A2, A4)</title>
<ellipse fill="none" stroke="#000000" cx="302.8916" cy="-162" rx="94.7833" ry="18"/>
<text text-anchor="middle" x="302.8916" y="-158.3" font-family="Times,serif" font-size="14.00" fill="#000000">(Manager; A1, A2, A4)</text>
</g>
<!-- (Manager; A1, A2, A4)&#45;&gt;A1 -->
<g id="edge4" class="edge">
<title>(Manager; A1, A2, A4)&#45;&gt;A1</title>
<path fill="none" stroke="#000000" d="M246.9814,-147.409C211.9748,-137.6473 166.2089,-123.7346 126.8916,-108 124.0371,-106.8576 121.1003,-105.5762 118.194,-104.2373"/>
</g>
<!-- (Manager; A1, A2, A4)&#45;&gt;A2 -->
<g id="edge5" class="edge">
<title>(Manager; A1, A2, A4)&#45;&gt;A2</title>
<path fill="none" stroke="#000000" d="M269.7135,-144.937C245.4558,-132.4616 212.9507,-115.7447 190.1913,-104.0399"/>
</g>
<!-- A4 -->
<g id="node8" class="node">
<title>A4</title>
<polygon fill="none" stroke="#000000" points="333.8916,-108 279.8916,-108 279.8916,-72 333.8916,-72 333.8916,-108"/>
<text text-anchor="middle" x="306.8916" y="-86.3" font-family="Times,serif" font-size="14.00" fill="#000000">A4</text>
</g>
<!-- (Manager; A1, A2, A4)&#45;&gt;A4 -->
<g id="edge6" class="edge">
<title>(Manager; A1, A2, A4)&#45;&gt;A4</title>
<path fill="none" stroke="#000000" d="M303.9009,-143.8314C304.5027,-133 305.2645,-119.2876 305.8686,-108.4133"/>
</g>
<!-- (Manager; A1, A3, A4) -->
<g id="node3" class="node">
<title>(Manager; A1, A3, A4)</title>
<ellipse fill="none" stroke="#000000" cx="94.8916" cy="-18" rx="94.7833" ry="18"/>
<text text-anchor="middle" x="94.8916" y="-14.3" font-family="Times,serif" font-size="14.00" fill="#000000">(Manager; A1, A3, A4)</text>
</g>
<!-- (Manager; A2, A3, A4) -->
<g id="node4" class="node">
<title>(Manager; A2, A3, A4)</title>
<ellipse fill="none" stroke="#000000" cx="302.8916" cy="-18" rx="94.7833" ry="18"/>
<text text-anchor="middle" x="302.8916" y="-14.3" font-family="Times,serif" font-size="14.00" fill="#000000">(Manager; A2, A3, A4)</text>
</g>
<!-- A1&#45;&gt;(Manager; A1, A3, A4) -->
<g id="edge10" class="edge">
<title>A1&#45;&gt;(Manager; A1, A3, A4)</title>
<path fill="none" stroke="#000000" d="M91.9009,-71.8314C92.5027,-61 93.2645,-47.2876 93.8686,-36.4133"/>
</g>
<!-- A1&#45;&gt;A2 -->
<!-- A2&#45;&gt;(Manager; A2, A3, A4) -->
<g id="edge11" class="edge">
<title>A2&#45;&gt;(Manager; A2, A3, A4)</title>
<path fill="none" stroke="#000000" d="M190.2173,-75.9468C213.0554,-64.2014 245.6936,-47.4161 269.969,-34.9316"/>
</g>
<!-- A2&#45;&gt;A3 -->
<!-- A3&#45;&gt;(Manager; A1, A3, A4) -->
<g id="edge12" class="edge">
<title>A3&#45;&gt;(Manager; A1, A3, A4)</title>
<path fill="none" stroke="#000000" d="M207.5658,-75.9468C184.7277,-64.2014 152.0896,-47.4161 127.8142,-34.9316"/>
</g>
<!-- A3&#45;&gt;(Manager; A2, A3, A4) -->
<g id="edge13" class="edge">
<title>A3&#45;&gt;(Manager; A2, A3, A4)</title>
<path fill="none" stroke="#000000" d="M252.0509,-71.8314C262.4378,-60.8334 275.6302,-46.865 285.9734,-35.9134"/>
</g>
<!-- A3&#45;&gt;A4 -->
<!-- A4&#45;&gt;(Manager; A1, A3, A4) -->
<g id="edge14" class="edge">
<title>A4&#45;&gt;(Manager; A1, A3, A4)</title>
<path fill="none" stroke="#000000" d="M279.5892,-75.7627C276.6828,-74.4238 273.7461,-73.1424 270.8916,-72 231.5743,-56.2654 185.8084,-42.3527 150.8018,-32.591"/>
</g>
<!-- A4&#45;&gt;(Manager; A2, A3, A4) -->
<g id="edge15" class="edge">
<title>A4&#45;&gt;(Manager; A2, A3, A4)</title>
<path fill="none" stroke="#000000" d="M305.8822,-71.8314C305.2805,-61 304.5187,-47.2876 303.9145,-36.4133"/>
</g>
</g>
</svg>
