<?xml version="1.0" encoding="UTF-8" standalone="no"?>
<!DOCTYPE svg PUBLIC "-//W3C//DTD SVG 1.1//EN"
 "http://www.w3.org/Graphics/SVG/1.1/DTD/svg11.dtd">
<!-- Generated by graphviz version 2.40.1 (20161225.0304)
 -->
<!-- Title: Topology Pages: 1 -->
<svg width="206pt" height="116pt"
 viewBox="0.00 0.00 206.00 116.00" xmlns="http://www.w3.org/2000/svg" xmlns:xlink="http://www.w3.org/1999/xlink">
<g id="graph0" class="graph" transform="scale(1 1) rotate(0) translate(4 112)">
<title>Topology</title>
<polygon fill="#ffffff" stroke="transparent" points="-4,4 -4,-112 202,-112 202,4 -4,4"/>
<!-- (Manager; A1, A2, A3) -->
<g id="node1" class="node">
<title>(Manager; A1, A2, A3)</title>
<ellipse fill="none" stroke="#000000" cx="99" cy="-90" rx="94.7833" ry="18"/>
<text text-anchor="middle" x="99" y="-86.3" font-family="Times,serif" font-size="14.00" fill="#000000">(Manager; A1, A2, A3)</text>
</g>
<!-- A1 -->
<g id="node2" class="node">
<title>A1</title>
<polygon fill="none" stroke="#000000" points="54,-36 0,-36 0,0 54,0 54,-36"/>
<text text-anchor="middle" x="27" y="-14.3" font-family="Times,serif" font-size="14.00" fill="#000000">A1</text>
</g>
<!-- (Manager; A1, A2, A3)&#45;&gt;A1 -->
<g id="edge1" class="edge">
<title>(Manager; A1, A2, A3)&#45;&gt;A1</title>
<path fill="none" stroke="#000000" d="M81.2022,-72.2022C70.2085,-61.2085 56.1413,-47.1413 45.0931,-36.0931"/>
</g>
<!-- A2 -->
<g id="node3" class="node">
<title>A2</title>
<polygon fill="none" stroke="#000000" points="126,-36 72,-36 72,0 126,0 126,-36"/>
<text text-anchor="middle" x="99" y="-14.3" font-family="Times,serif" font-size="14.00" fill="#000000">A2</text>
</g>
<!-- (Manager; A1, A2, A3)&#45;&gt;A2 -->
<g id="edge2" class="edge">
<title>(Manager; A1, A2, A3)&#45;&gt;A2</title>
<path fill="none" stroke="#000000" d="M99,-71.8314C99,-61 99,-47.2876 99,-36.4133"/>
</g>
<!-- A3 -->
<g id="node4" class="node">
<title>A3</title>
<polygon fill="none" stroke="#000000" points="198,-36 144,-36 144,0 198,0 198,-36"/>
<text text-anchor="middle" x="171" y="-14.3" font-family="Times,serif" font-size="14.00" fill="#000000">A3</text>
</g>
<!-- (Manager; A1, A2, A3)&#45;&gt;A3 -->
<g id="edge3" class="edge">
<title>(Manager; A1, A2, A3)&#45;&gt;A3</title>
<path fill="none" stroke="#000000" d="M116.7978,-72.2022C127.7915,-61.2085 141.8587,-47.1413 152.9069,-36.0931"/>
</g>
<!-- A1&#45;&gt;A2 -->
<!-- A2&#45;&gt;A3 -->
</g>
</svg>
